<?xml version="1.0" encoding="UTF-8"?>
<svg id="Layer_1" data-name="Layer 1" xmlns="http://www.w3.org/2000/svg" viewBox="0 0 715.42 262.63">
  <defs>
    <style>
      .cls-1 {
        fill: #0047a1;
      }

      .cls-2 {
        fill: #09a6eb;
      }
    </style>
  </defs>
  <path class="cls-1" d="M185.92,88.13c6.75-1.5,14-2,20.75-2,16.25,0,30.25,6,40.25,16.5,9.5,10.25,15.25,25,15.25,43.5,0,15.25-4.5,29.25-14.25,40-11.25,12.25-29.75,20-57,20-13.25,0-20.75-.75-27.75-2.25-11.75-2.75-17.75-11.5-17.75-22.5V51.13c0-11,9-19.75,20.25-19.75s20.25,8.75,20.25,19.75v37Zm0,84.5c.5,0,6.5,.25,8.75,.25,8.25,0,16.25-2.75,21.25-9.5,3-4.25,5-9.75,5-17.25,0-8.25-2.5-14.25-6.25-18.5-4.5-5-10.75-7.25-16.75-7.25-3.75,0-8,.5-12,1.25v51Z"/>
  <path class="cls-1" d="M371.92,90.63c6.5,3.5,11.25,9.25,11.25,17.5,0,10.5-7.5,18.5-17.5,18.5-4.5,0-7.75-1.25-11-3.5-2.75-1.75-6-3.25-10-3.25-6,0-10,2.25-12.75,6-4.5,6-5.5,15.25-5.5,23.5v37.25c0,10.75-9.5,19.5-20.25,19.5s-20.25-8.75-20.25-19.5V105.63c0-10.75,9-19.5,20.25-19.5,8.75,0,16,5.5,19,12.75h.75c2.5-3,5.5-5.5,8.75-7.75,4.75-3,10.25-5,17.5-5,6.25,0,13.75,1.25,19.75,4.5Z"/>
  <path class="cls-1" d="M396.42,51.13c0-11,9.25-19.75,20.25-19.75s20.25,8.75,20.25,19.75V186.63c0,10.75-9.25,19.5-20.25,19.5s-20.25-8.75-20.25-19.5V51.13Z"/>
  <path class="cls-1" d="M580.67,107.88c0,5.25-2.25,10.5-3.75,14.5l-32.25,87.75c-14.62,39.64-43.72,52.27-66.15,52.5-10.29,.1-19.46-8.21-19.84-18.49-.41-11.1,8.24-20,19.24-20,10,0,18.25-2.75,23.25-12l-41.75-89c-1.75-4-4.75-10-4.75-14.75,0-12.5,10-22.5,22.5-22.5s19,8.75,21.25,14.5l22.5,59.25,15.75-55.25c3.5-12,11.5-18.5,22-18.5,12.25,0,22,9.75,22,22Z"/>
  <path class="cls-2" d="M695.17,38c-11.25,0-20.25,12.63-20.25,28.14v67.09c0,6.49-.75,12.63-2.5,17.68-2.75,7.58-7.75,12.63-16,12.63s-13.25-5.05-16-12.63c-1.75-5.05-2.5-11.18-2.5-17.68V66.14c0-15.51-9-28.14-20.25-28.14s-20.25,12.63-20.25,28.14v68.9c0,21.64,4,38.24,11,50.14,10.5,18.04,27.5,25.97,48,25.97s37.5-7.94,48-25.97c7-11.9,11-28.5,11-50.14V66.14c0-15.51-9-28.14-20.25-28.14Z"/>
  <rect class="cls-2" x="0" y="99" width="39" height="107" rx="19.5" ry="19.5"/>
  <rect class="cls-2" x="78" y="99" width="39" height="107" rx="19.5" ry="19.5"/>
  <g>
    <rect class="cls-2" x="61.62" y="9.55" width="36.51" height="92.68" rx="18.25" ry="18.25" transform="translate(-16.12 72.85) rotate(-45)"/>
    <rect class="cls-2" x="21.32" y="9.36" width="36.51" height="92.68" rx="18.25" ry="18.25" transform="translate(50.97 -11.67) rotate(45)"/>
  </g>
  <rect class="cls-2" x="1" width="39" height="94" rx="19.5" ry="19.5"/>
</svg>